<?xml version="1.0" encoding="UTF-8"?>
<svg version="1.1" xmlns="http://www.w3.org/2000/svg" width="512" height="512">
<path d="M0 0 C1.44728153 -0.00258604 2.89456234 -0.00559986 4.34184217 -0.0090034 C8.31042511 -0.01704881 12.27898993 -0.0188616 16.24758005 -0.01960087 C20.53136076 -0.02145575 24.81513217 -0.02900532 29.09890747 -0.03573608 C38.46283655 -0.04930303 47.82676135 -0.05534173 57.19069862 -0.05974674 C63.0418011 -0.06251226 68.89290193 -0.06675021 74.7440033 -0.07125092 C90.9556391 -0.08344206 107.16727359 -0.09374128 123.37891388 -0.09712601 C124.41599376 -0.09734557 125.45307364 -0.09756514 126.52158019 -0.09779136 C127.56109329 -0.09800964 128.60060639 -0.09822791 129.67161989 -0.09845281 C131.77794679 -0.09889627 133.88427369 -0.09934283 135.99060059 -0.09979248 C137.03540382 -0.10001391 138.08020705 -0.10023534 139.15667099 -0.10046348 C156.07547867 -0.10440911 172.99424323 -0.12185665 189.91303426 -0.145152 C207.2985708 -0.16889603 224.68408572 -0.18132927 242.06963873 -0.18249393 C251.82475478 -0.18340904 261.57981464 -0.18911987 271.33491516 -0.20731354 C279.64386817 -0.22275582 287.95274762 -0.22781075 296.26171225 -0.21957543 C300.49648184 -0.21568334 304.7311035 -0.21652755 308.96585464 -0.23063278 C312.85233431 -0.24345885 316.73855619 -0.2420988 320.62503594 -0.23004207 C322.02145293 -0.2281 323.41788873 -0.23109347 324.81427938 -0.23988643 C352.04508778 -0.4003232 374.93197859 9.83919862 394.39587402 28.54278564 C410.83581172 45.6962623 418.38680693 68.24245292 418.2902832 91.71139526 C418.29518413 93.1362596 418.30137944 94.56111997 418.30874109 95.98597372 C418.32501201 99.86492596 418.32284917 103.74367326 418.31736612 107.62264752 C418.31467987 111.82052884 418.3292576 116.01835747 418.34146118 120.21621704 C418.36245155 128.42713766 418.36705967 136.63798757 418.3652733 144.84893186 C418.36396224 151.52895943 418.36778727 158.20896506 418.37519836 164.88898849 C418.37729772 166.81807848 418.37939532 168.74716846 418.38149118 170.67625844 C418.38305648 172.11682369 418.38305648 172.11682369 418.38465339 173.58649127 C418.40353056 191.72528452 418.40251354 209.86403727 418.39568406 228.00283627 C418.39011257 244.56294506 418.41092178 261.12289895 418.44404453 277.68297155 C418.47785585 294.72068512 418.49294048 311.75832465 418.4883275 328.79607236 C418.48609006 338.34781551 418.49121918 347.89941559 418.51622009 357.45112991 C418.53732979 365.58493566 418.54073018 373.7185199 418.5219205 381.85233505 C418.51282119 385.99457259 418.51143885 390.13639823 418.53227615 394.2786026 C418.68100935 425.97607932 413.74003211 451.28534335 391.45837402 474.95294189 C372.42903285 492.87849297 349.51444766 500.29293409 323.81193542 500.28761292 C322.36679178 500.29091554 320.92164905 500.29464194 319.47650748 500.29875439 C315.51371858 500.30873744 311.55094483 500.31248522 307.58814514 500.3151437 C303.31044049 500.31905783 299.0327477 500.32863544 294.75505066 500.33735657 C284.42779677 500.35709084 274.10054194 500.36718382 263.77327392 500.37608436 C258.90370207 500.38047267 254.03413131 500.38583811 249.16456032 500.39107323 C232.9657994 500.40808328 216.76703915 500.42257556 200.56827068 500.42982197 C196.36749457 500.4317317 192.16671847 500.43365206 187.96594238 500.43560791 C186.39991793 500.43633352 186.39991793 500.43633352 184.80225662 500.43707379 C167.90486117 500.44536708 151.00753667 500.47069315 134.11017217 500.50318859 C116.74157164 500.53631648 99.37300708 500.55427594 82.0043748 500.55746621 C72.26087944 500.55962612 62.51748752 500.56829837 52.77402306 500.59392738 C44.4728276 500.61571289 36.17176072 500.62364644 27.87053993 500.6139606 C23.64142931 500.60943839 19.41258353 500.61117966 15.18350983 500.63072205 C-17.72771417 500.77433207 -44.8687322 496.50517266 -69.69787598 472.64825439 C-86.58956282 455.07881468 -94.60395337 432.76038991 -94.49180603 408.54930115 C-94.49598902 407.12229935 -94.50147179 405.69530088 -94.50812584 404.26830846 C-94.52247286 400.38355771 -94.51836973 396.49902106 -94.51095903 392.61425912 C-94.50620276 388.4103052 -94.51875886 384.20639597 -94.52897644 380.00245667 C-94.54612224 371.78050559 -94.54701318 363.55863109 -94.54176354 355.33666679 C-94.53771248 348.64946324 -94.53917648 341.96228221 -94.5445118 335.27507973 C-94.54526022 334.32118567 -94.54600864 333.36729162 -94.54677974 332.38449169 C-94.54831131 330.44628132 -94.54984966 328.50807097 -94.55139471 326.56986061 C-94.56510466 308.41684834 -94.5596928 290.26387923 -94.5482095 272.11086795 C-94.5382802 255.52935364 -94.55121523 238.94795095 -94.57514369 222.36645385 C-94.59956817 205.31180628 -94.60913424 188.25721064 -94.60249096 171.20254594 C-94.59900599 161.6391855 -94.60118292 152.07591086 -94.61874199 142.51256371 C-94.63350598 134.37100769 -94.63404487 126.22959789 -94.61667108 118.08804461 C-94.60819285 113.94015975 -94.60593301 109.79253562 -94.62132263 105.64466476 C-94.63527561 101.83662311 -94.63027258 98.02906294 -94.6110834 94.22104839 C-94.60560923 92.21436906 -94.61950585 90.20766454 -94.6344375 88.20103329 C-94.43923639 63.75498479 -83.84711864 41.66020012 -66.5958252 24.56329346 C-48.15652449 6.9750374 -25.08041232 -0.01792891 0 0 Z " fill="#00005B" transform="translate(94.1041259765625,5.85955810546875)"/>
<path d="M0 0 C1.04590805 0.00222061 2.0918161 0.00444122 3.16941833 0.00672913 C4.35056717 0.00680466 5.531716 0.00688019 6.74865723 0.00695801 C8.03404892 0.01211929 9.31944061 0.01728058 10.64378357 0.02259827 C12.60601112 0.02472069 12.60601112 0.02472069 14.60787964 0.02688599 C18.09150591 0.03071042 21.57509071 0.04054005 25.05870056 0.05158997 C28.6111444 0.06180569 32.16359491 0.06638395 35.71604919 0.07142639 C42.69067564 0.0821624 49.66527449 0.09923792 56.63987732 0.12025452 C59.9942521 7.95782092 63.05080052 15.84105299 65.83518982 23.89759827 C66.41239777 25.55218048 66.41239777 25.55218048 67.00126648 27.2401886 C67.82762572 29.60940424 68.65249631 31.97913955 69.47599792 34.34934998 C71.7042007 40.76040543 73.94533566 47.16693421 76.18675232 53.57337952 C76.41562008 54.22784246 76.64448784 54.88230541 76.88029099 55.55660057 C81.52364927 68.83152735 86.25399612 82.07455316 91.01487732 95.30775452 C96.13721835 109.54945474 101.24402602 123.7962791 106.30003357 138.06166077 C106.53901745 138.73586248 106.77800133 139.4100642 107.02422714 140.10469627 C109.18284435 146.19496153 111.34036149 152.28561538 113.49461365 158.37742615 C120.00686572 176.80456578 120.00686572 176.80456578 126.69847107 195.16712952 C126.99243271 195.96330688 127.28639435 196.75948425 127.58926392 197.57978821 C128.87707032 201.06372907 130.1744703 204.54338916 131.4931488 208.01576233 C132.13425598 209.73811096 132.13425598 209.73811096 132.78831482 211.49525452 C133.15102478 212.45173889 133.51373474 213.40822327 133.88743591 214.39369202 C134.63987732 217.12025452 134.63987732 217.12025452 134.63987732 223.12025452 C118.46987732 223.12025452 102.29987732 223.12025452 85.63987732 223.12025452 C82.99824698 216.51617867 80.47481534 209.96663126 78.18675232 203.24525452 C77.88166748 202.3541095 77.57658264 201.46296448 77.26225281 200.54481506 C76.62576037 198.68319833 75.99057869 196.82113297 75.35667419 194.95863342 C74.38239276 192.09828092 73.40199615 189.24007262 72.42112732 186.38197327 C71.80096977 184.5656919 71.18116508 182.74929001 70.56175232 180.93275452 C70.12122528 179.65005676 70.12122528 179.65005676 69.67179871 178.34144592 C69.27072906 177.15881165 69.27072906 177.15881165 68.86155701 175.95228577 C68.50659149 174.91164978 68.50659149 174.91164978 68.14445496 173.84999084 C67.63987732 172.12025452 67.63987732 172.12025452 67.63987732 170.12025452 C41.23987732 170.12025452 14.83987732 170.12025452 -12.36012268 170.12025452 C-13.35012268 174.41025452 -14.34012268 178.70025452 -15.36012268 183.12025452 C-16.61924564 186.98811479 -17.90902723 190.80178131 -19.29762268 194.62025452 C-20.00910782 196.6156897 -20.71875628 198.61178076 -21.42652893 200.60853577 C-21.76184631 201.55422424 -22.0971637 202.49991272 -22.44264221 203.47425842 C-23.95696964 207.84154973 -25.28534668 212.25455607 -26.57106018 216.69447327 C-27.36012268 219.12025452 -27.36012268 219.12025452 -29.36012268 223.12025452 C-44.54012268 223.12025452 -59.72012268 223.12025452 -75.36012268 223.12025452 C-74.66612623 218.26227939 -74.07017024 214.77808661 -72.49684143 210.31996155 C-72.11067154 209.21544144 -71.72450165 208.11092133 -71.32662964 206.97293091 C-70.90455734 205.78662582 -70.48248505 204.60032074 -70.04762268 203.37806702 C-69.60194027 202.11044646 -69.1568609 200.84261375 -68.71234131 199.57458496 C-67.76361638 196.87202946 -66.81096239 194.17090571 -65.85508728 191.47087097 C-64.34309165 187.19986463 -62.83967842 182.92587042 -61.33790588 178.65126038 C-59.80934561 174.3013244 -58.28044971 169.95151045 -56.74862671 165.60272217 C-52.64867409 153.96119696 -48.59890667 142.30273473 -44.5684967 130.63694763 C-38.66059643 113.54073602 -32.66747958 96.47655919 -26.61012268 79.43275452 C-21.2815028 64.43847862 -16.01205231 49.4262364 -10.86012268 34.37025452 C-10.58204773 33.55908173 -10.30397278 32.74790894 -10.01747131 31.91215515 C-9.24412501 29.6541222 -8.47337496 27.39522497 -7.70387268 25.13587952 C-7.47870972 24.47788864 -7.25354675 23.81989777 -7.02156067 23.14196777 C-4.79971258 16.590079 -4.07173729 10.82992471 -3.64137268 3.92103577 C-3.26433073 0.16632632 -3.26433073 0.16632632 0 0 Z " fill="#9898FE" transform="translate(138.36012268066406,134.87974548339844)"/>
<path d="M0 0 C13.79841201 12.17341034 21.63661198 30.06689837 23.24023438 48.24487305 C23.7517067 59.19111417 23.93451164 70.39498209 22.24023438 81.24487305 C18.00677337 85.47833405 9.86939642 84.35951451 4.15509033 84.36929321 C3.30847839 84.36569794 2.46186646 84.36210266 1.58959961 84.35839844 C0.67144974 84.35854446 -0.24670013 84.35869049 -1.19267273 84.35884094 C-4.19553071 84.35815016 -7.19832488 84.35039723 -10.20117188 84.3425293 C-12.29581163 84.34066215 -14.39045182 84.33923965 -16.48509216 84.33824158 C-21.97426579 84.33443978 -27.46341259 84.32462964 -32.95257568 84.3135376 C-38.56343218 84.30327303 -44.17429305 84.29873318 -49.78515625 84.29370117 C-60.77670444 84.28300511 -71.76823279 84.26595701 -82.75976562 84.24487305 C-82.31126923 86.1460215 -81.85539318 88.04542986 -81.39648438 89.9440918 C-81.14342529 91.00200928 -80.89036621 92.05992676 -80.62963867 93.14990234 C-78.0543214 102.31276987 -72.80730905 108.20425775 -64.99414062 113.42456055 C-42.44005389 126.07446137 -15.12325881 119.61673482 8.24023438 113.24487305 C8.24023438 125.78487305 8.24023438 138.32487305 8.24023438 151.24487305 C-1.05125941 155.11632879 -8.17466808 157.51782844 -17.75976562 159.24487305 C-18.73945313 159.45112305 -19.71914063 159.65737305 -20.72851562 159.86987305 C-41.94317848 163.88949338 -67.10438554 162.59186086 -86.75976562 153.24487305 C-88.15195312 152.59905273 -88.15195312 152.59905273 -89.57226562 151.94018555 C-107.91756694 142.71541756 -120.24168357 126.88518687 -127.00976562 107.7019043 C-128.05643207 104.23482169 -128.95143142 100.77473447 -129.75976562 97.24487305 C-129.98535156 96.27936523 -130.2109375 95.31385742 -130.44335938 94.3190918 C-135.38524317 68.58721411 -131.09635446 41.14493474 -116.94726562 18.99487305 C-105.15373416 2.20748326 -89.22494205 -10.49665461 -68.75976562 -14.75512695 C-44.53938876 -18.30950583 -19.43062412 -16.20319505 0 0 Z " fill="#9797FD" transform="translate(415.759765625,201.755126953125)"/>
<path d="M0 0 C2 1 2 1 2.97265625 3.796875 C3.34268977 5.11270315 3.70525125 6.4306434 4.0625 7.75 C6.40127058 16.04532689 8.92745911 24.27432565 11.5 32.5 C14.17648682 41.07621227 16.82364406 49.65706778 19.3215332 58.28710938 C21.06717786 64.30014028 22.96517779 70.2600953 24.88671875 76.21875 C26.12519024 80.42520756 27.04876311 84.719434 28 89 C10.18 89 -7.64 89 -26 89 C-24.64689014 82.23445068 -23.18353694 75.90310003 -21.125 69.375 C-20.50407411 67.37144491 -19.88438717 65.36750563 -19.265625 63.36328125 C-18.91435547 62.22713379 -18.56308594 61.09098633 -18.20117188 59.92041016 C-16.79359504 55.34311169 -15.41998047 50.75570441 -14.046875 46.16796875 C-13.78691742 45.29944275 -13.52695984 44.43091675 -13.25912476 43.53607178 C-12.20765593 40.02132434 -11.15691055 36.50636153 -10.10699463 32.9911499 C-6.81401544 21.96956 -3.46083612 10.97010766 0 0 Z " fill="#03035E" transform="translate(165,174)"/>
<path d="M0 0 C6.92712113 4.40703943 12.07193813 10.3610577 14.1796875 18.38671875 C14.46149785 21.47723887 14.37734728 24.27357714 14.1796875 27.38671875 C11.00129059 28.44618439 8.76123402 28.50736171 5.4230957 28.50024414 C3.65159904 28.50013084 3.65159904 28.50013084 1.84431458 28.50001526 C0.56924545 28.49485397 -0.70582367 28.48969269 -2.01953125 28.484375 C-3.32485306 28.48296005 -4.63017487 28.4815451 -5.97505188 28.48008728 C-9.44220906 28.47627255 -12.90932424 28.46645119 -16.37646484 28.4553833 C-19.91568432 28.44514673 -23.4549106 28.44058485 -26.99414062 28.43554688 C-33.93621515 28.42482798 -40.87826181 28.40776409 -47.8203125 28.38671875 C-47.52906785 26.80624375 -47.2308128 25.22705976 -46.9296875 23.6484375 C-46.76436523 22.76889404 -46.59904297 21.88935059 -46.42871094 20.9831543 C-44.56346149 13.02291036 -39.96158744 6.32715378 -33.328125 1.6171875 C-23.23852944 -4.22055952 -10.6885736 -5.12835602 0 0 Z " fill="#01015C" transform="translate(379.8203125,225.61328125)"/>
</svg>
