<?xml version="1.0" encoding="UTF-8"?>
<svg version="1.1" xmlns="http://www.w3.org/2000/svg" width="800" height="800">
<path d="M0 0 C1.25820557 0.00337372 2.51641113 0.00674744 3.81274414 0.01022339 C24.26238094 0.08926127 44.27774279 0.91501228 64.4375 4.4375 C65.14614197 4.5610083 65.85478394 4.6845166 66.5848999 4.81176758 C85.52466345 8.15558946 104.13225673 12.49694204 122.4375 18.4375 C123.46182129 18.76443848 124.48614258 19.09137695 125.54150391 19.42822266 C166.48501986 32.604943 205.10140238 52.53498069 239.4375 78.4375 C240.03208008 78.8804541 240.62666016 79.3234082 241.23925781 79.77978516 C249.97038841 86.28440248 258.27298594 93.23977268 266.4375 100.4375 C267.38882813 101.27539062 268.34015625 102.11328125 269.3203125 102.9765625 C281.78042124 114.18718958 294.31539204 125.88335539 304.625 139.1328125 C306.36539512 141.34581491 308.20432515 143.38077734 310.125 145.4375 C324.65078726 161.61592174 336.56590262 180.65970691 347.4375 199.4375 C347.82905273 200.11087402 348.22060547 200.78424805 348.62402344 201.47802734 C371.47655248 241.0049843 386.83386892 284.32954567 395.125 329.1875 C395.31537842 330.19530518 395.50575684 331.20311035 395.7019043 332.24145508 C399.65524413 354.70118385 400.99472532 377.22676371 400.875 400 C400.86993942 401.88730835 400.86993942 401.88730835 400.86477661 403.81274414 C400.78573873 424.26238094 399.95998772 444.27774279 396.4375 464.4375 C396.3139917 465.14614197 396.1904834 465.85478394 396.06323242 466.5848999 C392.71941054 485.52466345 388.37805796 504.13225673 382.4375 522.4375 C382.11056152 523.46182129 381.78362305 524.48614258 381.44677734 525.54150391 C368.270057 566.48501986 348.34001931 605.10140238 322.4375 639.4375 C321.9945459 640.03208008 321.5515918 640.62666016 321.09521484 641.23925781 C314.59059752 649.97038841 307.63522732 658.27298594 300.4375 666.4375 C299.59960938 667.38882813 298.76171875 668.34015625 297.8984375 669.3203125 C286.68781042 681.78042124 274.99164461 694.31539204 261.7421875 704.625 C259.52918509 706.36539512 257.49422266 708.20432515 255.4375 710.125 C239.25907826 724.65078726 220.21529309 736.56590262 201.4375 747.4375 C200.76412598 747.82905273 200.09075195 748.22060547 199.39697266 748.62402344 C159.8700157 771.47655248 116.54545433 786.83386892 71.6875 795.125 C70.67969482 795.31537842 69.67188965 795.50575684 68.63354492 795.7019043 C46.17381615 799.65524413 23.64823629 800.99472532 0.875 800.875 C-0.38320557 800.87162628 -1.64141113 800.86825256 -2.93774414 800.86477661 C-23.38738094 800.78573873 -43.40274279 799.95998772 -63.5625 796.4375 C-64.27114197 796.3139917 -64.97978394 796.1904834 -65.7098999 796.06323242 C-84.64966345 792.71941054 -103.25725673 788.37805796 -121.5625 782.4375 C-122.58682129 782.11056152 -123.61114258 781.78362305 -124.66650391 781.44677734 C-165.61001986 768.270057 -204.22640238 748.34001931 -238.5625 722.4375 C-239.15708008 721.9945459 -239.75166016 721.5515918 -240.36425781 721.09521484 C-249.09538841 714.59059752 -257.39798594 707.63522732 -265.5625 700.4375 C-266.51382813 699.59960938 -267.46515625 698.76171875 -268.4453125 697.8984375 C-280.90542124 686.68781042 -293.44039204 674.99164461 -303.75 661.7421875 C-305.49039512 659.52918509 -307.32932515 657.49422266 -309.25 655.4375 C-323.77578726 639.25907826 -335.69090262 620.21529309 -346.5625 601.4375 C-346.95405273 600.76412598 -347.34560547 600.09075195 -347.74902344 599.39697266 C-370.60155248 559.8700157 -385.95886892 516.54545433 -394.25 471.6875 C-394.44037842 470.67969482 -394.63075684 469.67188965 -394.8269043 468.63354492 C-398.78024413 446.17381615 -400.11972532 423.64823629 -400 400.875 C-399.99662628 399.61679443 -399.99325256 398.35858887 -399.98977661 397.06225586 C-399.91073873 376.61261906 -399.08498772 356.59725721 -395.5625 336.4375 C-395.4389917 335.72885803 -395.3154834 335.02021606 -395.18823242 334.2901001 C-391.84441054 315.35033655 -387.50305796 296.74274327 -381.5625 278.4375 C-381.23556152 277.41317871 -380.90862305 276.38885742 -380.57177734 275.33349609 C-367.395057 234.38998014 -347.46501931 195.77359762 -321.5625 161.4375 C-321.1195459 160.84291992 -320.6765918 160.24833984 -320.22021484 159.63574219 C-313.71559752 150.90461159 -306.76022732 142.60201406 -299.5625 134.4375 C-298.72460938 133.48617187 -297.88671875 132.53484375 -297.0234375 131.5546875 C-285.81281042 119.09457876 -274.11664461 106.55960796 -260.8671875 96.25 C-258.65418509 94.50960488 -256.61922266 92.67067485 -254.5625 90.75 C-238.38407826 76.22421274 -219.34029309 64.30909738 -200.5625 53.4375 C-199.88912598 53.04594727 -199.21575195 52.65439453 -198.52197266 52.25097656 C-158.9950157 29.39844752 -115.67045433 14.04113108 -70.8125 5.75 C-69.80469482 5.55962158 -68.79688965 5.36924316 -67.75854492 5.1730957 C-45.29881615 1.21975587 -22.77323629 -0.11972532 0 0 Z " fill="#923068" transform="translate(399.5625,-0.43750000000000006)"/>
<path d="M0 0 C27.06 0 54.12 0 82 0 C82 132.66 82 265.32 82 402 C55.27 402 28.54 402 1 402 C0 401 0 401 -0.1241985 398.30457777 C-0.12381878 397.08681467 -0.12343906 395.86905157 -0.12304783 394.61438656 C-0.12420167 393.93619487 -0.12535552 393.25800317 -0.12654433 392.55926022 C-0.12921755 390.25822783 -0.12468308 387.95726367 -0.12025452 385.65623474 C-0.12069008 384.00132657 -0.1215647 382.34641847 -0.12284368 380.69151074 C-0.12509167 376.12173027 -0.12106323 371.55197301 -0.11606562 366.9821955 C-0.11176564 362.06260337 -0.11320722 357.14301266 -0.1139679 352.22341919 C-0.11449342 343.69251124 -0.11134367 335.16161091 -0.10573006 326.63070488 C-0.09761888 314.2962954 -0.09500023 301.96188963 -0.09374207 289.62747777 C-0.09155094 269.61794207 -0.08488922 249.60841044 -0.07543945 229.59887695 C-0.06626689 210.15616883 -0.0591853 190.7134618 -0.05493164 171.27075195 C-0.05466892 170.07322945 -0.05440619 168.87570695 -0.05413551 167.64189588 C-0.05283051 161.63455395 -0.0515668 155.62721201 -0.05032361 149.61987007 C-0.03994911 99.74657643 -0.0215098 49.87329032 0 0 Z " fill="#FEFEFE" transform="translate(204,205)"/>
<path d="M0 0 C79.86 0 159.72 0 242 0 C242 26.73 242 53.46 242 81 C240.06381231 82.93618769 237.14018209 82.12298391 234.56319803 82.12908131 C233.62839233 82.12616847 232.69358663 82.12325563 231.73045349 82.12025452 C230.74546295 82.12110894 229.7604724 82.12196337 228.74563366 82.12284368 C225.41821365 82.12450147 222.09084316 82.11897225 218.76342773 82.11352539 C216.3889262 82.11324356 214.01442458 82.11340118 211.6399231 82.1139679 C205.8440998 82.11422605 200.04829294 82.10987473 194.25247341 82.10353024 C187.51097875 82.0963963 180.76948647 82.09488635 174.02798856 82.09374207 C162.00473954 82.09155123 149.98149729 82.08489027 137.95825195 82.07543945 C126.27596063 82.06626616 114.59367115 82.05918492 102.91137695 82.05493164 C102.19177374 82.05466892 101.47217053 82.05440619 100.73076116 82.05413551 C97.12087064 82.05283051 93.5109801 82.05156679 89.90108955 82.05032361 C59.93405378 82.03995 29.96703043 82.02151116 0 82 C0 54.94 0 27.88 0 0 Z " fill="#FDFAFB" transform="translate(364,365)"/>
<path d="M0 0 C30.68495466 -0.0220265 61.36990172 -0.04049793 92.05486181 -0.05106533 C95.67370021 -0.05231611 99.29253858 -0.05361042 102.91137695 -0.05493164 C103.6318528 -0.05519395 104.35232865 -0.05545626 105.0946371 -0.05572652 C116.77574418 -0.06008331 128.45684636 -0.06797091 140.13795053 -0.0771528 C152.11495649 -0.08648908 164.09195987 -0.09205555 176.06896931 -0.09408849 C182.80000169 -0.09534006 189.53102383 -0.09836182 196.26205254 -0.10573006 C202.58942067 -0.11248605 208.91677304 -0.11461783 215.24414444 -0.11310768 C217.57387058 -0.1133842 219.90359721 -0.11539181 222.23332024 -0.11920547 C225.39905111 -0.12413615 228.56472139 -0.12300061 231.73045349 -0.12025452 C233.13266204 -0.12462378 233.13266204 -0.12462378 234.56319803 -0.12908131 C240.88587879 -0.11412121 240.88587879 -0.11412121 242 1 C242 27.73 242 54.46 242 82 C162.14 82 82.28 82 0 82 C0 54.94 0 27.88 0 0 Z " fill="#FEFEFE" transform="translate(364,205)"/>
<path d="M0 0 C30.68495466 -0.0220265 61.36990172 -0.04049793 92.05486181 -0.05106533 C95.67370021 -0.05231611 99.29253858 -0.05361042 102.91137695 -0.05493164 C103.6318528 -0.05519395 104.35232865 -0.05545626 105.0946371 -0.05572652 C116.77574418 -0.06008331 128.45684636 -0.06797091 140.13795053 -0.0771528 C152.11495649 -0.08648908 164.09195987 -0.09205555 176.06896931 -0.09408849 C182.80000169 -0.09534006 189.53102383 -0.09836182 196.26205254 -0.10573006 C202.58942067 -0.11248605 208.91677304 -0.11461783 215.24414444 -0.11310768 C217.57387058 -0.1133842 219.90359721 -0.11539181 222.23332024 -0.11920547 C225.39905111 -0.12413615 228.56472139 -0.12300061 231.73045349 -0.12025452 C233.13266204 -0.12462378 233.13266204 -0.12462378 234.56319803 -0.12908131 C240.88587879 -0.11412121 240.88587879 -0.11412121 242 1 C242.10033866 3.48953697 242.13617943 5.95134953 242.12939453 8.44140625 C242.13202301 9.60964432 242.13202301 9.60964432 242.13470459 10.80148315 C242.13912349 13.38851111 242.13618499 15.97547129 242.1328125 18.5625 C242.13348553 20.35229506 242.13445554 22.14209002 242.13571167 23.93188477 C242.13718869 27.68799711 242.13503394 31.44408572 242.13037109 35.20019531 C242.1246738 40.02600493 242.12795278 44.85175895 242.13394356 49.67756653 C242.13754905 53.37488223 242.13641064 57.07218464 242.13381577 60.76950073 C242.13314646 62.54938768 242.13397503 64.32927582 242.13629532 66.10916138 C242.13882165 68.59233822 242.13498154 71.07542374 242.12939453 73.55859375 C242.13141876 74.30148651 242.13344299 75.04437927 242.13552856 75.80978394 C242.11426262 80.88573738 242.11426262 80.88573738 241 82 C237.90285742 82.09804809 234.82799884 82.12990642 231.73045349 82.12025452 C230.74546295 82.12110894 229.7604724 82.12196337 228.74563366 82.12284368 C225.41821365 82.12450147 222.09084316 82.11897225 218.76342773 82.11352539 C216.3889262 82.11324356 214.01442458 82.11340118 211.6399231 82.1139679 C205.8440998 82.11422605 200.04829294 82.10987473 194.25247341 82.10353024 C187.51097875 82.0963963 180.76948647 82.09488635 174.02798856 82.09374207 C162.00473954 82.09155123 149.98149729 82.08489027 137.95825195 82.07543945 C126.27596063 82.06626616 114.59367115 82.05918492 102.91137695 82.05493164 C102.19177374 82.05466892 101.47217053 82.05440619 100.73076116 82.05413551 C97.12087064 82.05283051 93.5109801 82.05156679 89.90108955 82.05032361 C59.93405378 82.03995 29.96703043 82.02151116 0 82 C0 54.94 0 27.88 0 0 Z " fill="#FBF9FA" transform="translate(364,525)"/>
<path d="M0 0 C27.06 0 54.12 0 82 0 C82 132.66 82 265.32 82 402 C55.27 402 28.54 402 1 402 C0 401 0 401 -0.1241985 398.30457777 C-0.12381878 397.08681467 -0.12343906 395.86905157 -0.12304783 394.61438656 C-0.12420167 393.93619487 -0.12535552 393.25800317 -0.12654433 392.55926022 C-0.12921755 390.25822783 -0.12468308 387.95726367 -0.12025452 385.65623474 C-0.12069008 384.00132657 -0.1215647 382.34641847 -0.12284368 380.69151074 C-0.12509167 376.12173027 -0.12106323 371.55197301 -0.11606562 366.9821955 C-0.11176564 362.06260337 -0.11320722 357.14301266 -0.1139679 352.22341919 C-0.11449342 343.69251124 -0.11134367 335.16161091 -0.10573006 326.63070488 C-0.09761888 314.2962954 -0.09500023 301.96188963 -0.09374207 289.62747777 C-0.09155094 269.61794207 -0.08488922 249.60841044 -0.07543945 229.59887695 C-0.06626689 210.15616883 -0.0591853 190.7134618 -0.05493164 171.27075195 C-0.05466892 170.07322945 -0.05440619 168.87570695 -0.05413551 167.64189588 C-0.05283051 161.63455395 -0.0515668 155.62721201 -0.05032361 149.61987007 C-0.03994911 99.74657643 -0.0215098 49.87329032 0 0 Z M2 2 C2 133.34 2 264.68 2 400 C27.41 400 52.82 400 79 400 C79 268.66 79 137.32 79 2 C53.59 2 28.18 2 2 2 Z " fill="#D7B6CC" transform="translate(204,205)"/>
<path d="M0 0 C30.68495466 -0.0220265 61.36990172 -0.04049793 92.05486181 -0.05106533 C95.67370021 -0.05231611 99.29253858 -0.05361042 102.91137695 -0.05493164 C103.6318528 -0.05519395 104.35232865 -0.05545626 105.0946371 -0.05572652 C116.77574418 -0.06008331 128.45684636 -0.06797091 140.13795053 -0.0771528 C152.11495649 -0.08648908 164.09195987 -0.09205555 176.06896931 -0.09408849 C182.80000169 -0.09534006 189.53102383 -0.09836182 196.26205254 -0.10573006 C202.58942067 -0.11248605 208.91677304 -0.11461783 215.24414444 -0.11310768 C217.57387058 -0.1133842 219.90359721 -0.11539181 222.23332024 -0.11920547 C225.39905111 -0.12413615 228.56472139 -0.12300061 231.73045349 -0.12025452 C233.13266204 -0.12462378 233.13266204 -0.12462378 234.56319803 -0.12908131 C240.88587879 -0.11412121 240.88587879 -0.11412121 242 1 C242 27.73 242 54.46 242 82 C162.14 82 82.28 82 0 82 C0 54.94 0 27.88 0 0 Z M2 2 C2 27.41 2 52.82 2 79 C80.54 79 159.08 79 240 79 C240 53.59 240 28.18 240 2 C161.46 2 82.92 2 2 2 Z " fill="#E5B7CB" transform="translate(364,205)"/>
<path d="M0 0 C3.14581423 -0.02888514 6.29159469 -0.04675923 9.4375 -0.0625 C10.78424805 -0.07506836 10.78424805 -0.07506836 12.15820312 -0.08789062 C13.01220703 -0.09111328 13.86621094 -0.09433594 14.74609375 -0.09765625 C15.53685303 -0.10289307 16.3276123 -0.10812988 17.14233398 -0.11352539 C19 0 19 0 20 1 C22.0090589 1.09409069 24.02145766 1.11743131 26.03271484 1.11352539 C27.32430511 1.11344986 28.61589539 1.11337433 29.94662476 1.11329651 C31.36806272 1.10818748 32.7895003 1.10297145 34.2109375 1.09765625 C35.65963696 1.09579148 37.10833704 1.09436786 38.55703735 1.09336853 C42.379819 1.08954256 46.20256291 1.07971502 50.02532959 1.06866455 C53.9101104 1.05847251 57.7948972 1.05387024 61.6796875 1.04882812 C68.5125779 1.03924141 75.34544018 1.02472793 82.17831421 1.00672913 C86.26873329 0.99697434 89.98453134 1.14564497 94 2 C96.52379877 4.52379877 96.23534328 6.0741581 96.24884033 9.51612854 C96.2380545 10.66950966 96.2380545 10.66950966 96.22705078 11.84619141 C96.22734283 12.65602982 96.22763489 13.46586823 96.22793579 14.30024719 C96.2265395 16.98412696 96.21096435 19.66773107 96.1953125 22.3515625 C96.19158343 24.20958301 96.18873596 26.06760548 96.18673706 27.92562866 C96.17909224 32.82146614 96.15943649 37.71718539 96.1373291 42.61297607 C96.11688893 47.60655111 96.10773926 52.60014521 96.09765625 57.59375 C96.07619138 67.39588534 96.04204522 77.19793285 96 87 C95.67 87 95.34 87 95 87 C94.67 60.27 94.34 33.54 94 6 C-25.295 5.505 -25.295 5.505 -147 5 C-146.34 3.68 -145.68 2.36 -145 1 C-97.15 1 -49.3 1 0 1 C0 0.67 0 0.34 0 0 Z " fill="#AE3866" transform="translate(511,200)"/>
<path d="M0 0 C0.66 0 1.32 0 2 0 C2 131.34 2 262.68 2 398 C0.68 398.33 -0.64 398.66 -2 399 C-2 393.39 -2 387.78 -2 382 C-1.34 382 -0.68 382 0 382 C-0.0712328 381.45592015 -0.1424656 380.9118403 -0.21585697 380.35127318 C-1.13602064 372.45747153 -1.12086001 364.61187837 -1.08229065 356.67489624 C-1.07859104 355.13184094 -1.07534325 353.5887845 -1.07250541 352.04572737 C-1.06345078 347.82691293 -1.04802581 343.60814259 -1.03152263 339.38935161 C-1.01482396 334.83189429 -1.00408716 330.27442239 -0.99261475 325.71694946 C-0.97194523 317.82789235 -0.9475248 309.93885406 -0.92053413 302.04981613 C-0.88151593 290.64368561 -0.84818975 279.23754401 -0.81623887 267.83139177 C-0.76424282 249.32426751 -0.70766338 230.81716023 -0.64819336 212.31005859 C-0.59044428 194.33545594 -0.53485892 176.36084873 -0.48217773 158.38623047 C-0.47892802 157.27769535 -0.4756783 156.16916023 -0.4723301 155.02703314 C-0.45604004 149.46566508 -0.43979245 143.90429689 -0.42356598 138.34292865 C-0.28896275 92.22859817 -0.14691764 46.11429278 0 0 Z " fill="#7C245E" transform="translate(201,206)"/>
<path d="M0 0 C0.33 0 0.66 0 1 0 C1 27.06 1 54.12 1 82 C80.86 82 160.72 82 243 82 C242.34 82.99 241.68 83.98 241 85 C238.61267376 85.36635017 238.61267376 85.36635017 235.55412292 85.35403442 C233.81910774 85.35805267 233.81910774 85.35805267 232.04904175 85.3621521 C230.77368561 85.34979523 229.49832947 85.33743835 228.18432617 85.32470703 C226.8325569 85.32222463 225.48078461 85.32107656 224.12901306 85.32116699 C221.2140138 85.31845722 218.29926319 85.30620845 215.38432884 85.28662491 C210.77471579 85.25565884 206.16519848 85.24533494 201.55549622 85.23776245 C194.26221901 85.22325728 186.96907901 85.19431546 179.6758731 85.15951526 C166.62252679 85.09768501 153.56909932 85.05998842 140.51564962 85.02792251 C135.9341333 85.01609491 131.35269812 84.99790776 126.77122724 84.97440743 C123.91827639 84.96056106 121.06532083 84.95072068 118.21235085 84.94177246 C116.2607321 84.9342998 114.30913519 84.92167966 112.35754395 84.90890503 C111.19240768 84.90594421 110.02727142 84.9029834 108.826828 84.89993286 C107.81637515 84.89511461 106.8059223 84.89029636 105.76484966 84.88533211 C103.06805592 84.99717749 100.63043376 85.41926284 98 86 C92.54862786 86.32746758 87.39680522 85.78498985 82 85 C78.13958877 84.80396349 74.44847145 84.92525476 70.625 85.5625 C68 86 68 86 66 85 C65.01 85.495 65.01 85.495 64 86 C57.05087531 86.22784015 57.05087531 86.22784015 53.67912292 85.49681091 C51.02797619 85.00518785 48.65820801 84.89217613 45.96606445 84.91821289 C44.99188065 84.9247438 44.01769684 84.93127472 43.01399231 84.93800354 C41.97425766 84.94943893 40.93452301 84.96087433 39.86328125 84.97265625 C37.65560048 84.98529401 35.44791811 84.99765558 33.24023438 85.00976562 C29.76386543 85.03466551 26.28757918 85.06273807 22.8112793 85.09594727 C19.45360769 85.12602162 16.09604396 85.14387762 12.73828125 85.16015625 C11.69247391 85.17361588 10.64666656 85.1870755 9.56916809 85.20094299 C8.1220771 85.20601112 8.1220771 85.20601112 6.64575195 85.21118164 C5.79479446 85.21863907 4.94383698 85.2260965 4.0670929 85.23377991 C2 85 2 85 0 83 C-0.18795611 80.34955896 -0.25183861 77.80449186 -0.22705078 75.15380859 C-0.22734283 74.34397018 -0.22763489 73.53413177 -0.22793579 72.69975281 C-0.2265395 70.01587304 -0.21096435 67.33226893 -0.1953125 64.6484375 C-0.19158343 62.79041699 -0.18873596 60.93239452 -0.18673706 59.07437134 C-0.17909224 54.17853386 -0.15943649 49.28281461 -0.1373291 44.38702393 C-0.11688893 39.39344889 -0.10773926 34.39985479 -0.09765625 29.40625 C-0.07619138 19.60411466 -0.04204522 9.80206715 0 0 Z " fill="#A8406F" transform="translate(363,205)"/>
<path d="M0 0 C0.33 0 0.66 0 1 0 C1.85638917 6.65442916 2.14339601 13.13773823 2.12939453 19.84277344 C2.13202301 21.41347092 2.13202301 21.41347092 2.13470459 23.01589966 C2.13908863 26.46374189 2.13619295 29.91153228 2.1328125 33.359375 C2.13348753 35.78810638 2.13445922 38.2168377 2.13571167 40.64556885 C2.13718484 45.74288576 2.13505002 50.84018513 2.13037109 55.9375 C2.12473401 62.384514 2.12800347 68.83148617 2.13382149 75.27849865 C2.15212697 99.28530168 2.13422341 123.24960719 1.1026001 147.23699951 C0.85768014 153.83264576 0.85004378 160.43206065 0.86962891 167.03149414 C0.87524871 169.28733335 0.86947925 171.5429929 0.86328125 173.79882812 C0.86393837 175.25520877 0.86521182 176.7115893 0.8671875 178.16796875 C0.86887939 180.07485474 0.86887939 180.07485474 0.87060547 182.02026367 C0.7938625 184.92771563 0.7938625 184.92771563 2 187 C1.51171875 189.0234375 1.51171875 189.0234375 0.6875 191.375 C0.42324219 192.14585937 0.15898437 192.91671875 -0.11328125 193.7109375 C-2.44126984 199.72063492 -2.44126984 199.72063492 -5 201 C-7.71760108 201.07181821 -10.40859388 201.09299506 -13.125 201.0625 C-13.87910156 201.05798828 -14.63320313 201.05347656 -15.41015625 201.04882812 C-17.27347127 201.03703499 -19.13674555 201.01909942 -21 201 C-21 200.34 -21 199.68 -21 199 C-36.84 199 -52.68 199 -69 199 C-69 199.66 -69 200.32 -69 201 C-70.93719378 201.05406122 -72.87481921 201.09282025 -74.8125 201.125 C-75.89144531 201.14820313 -76.97039062 201.17140625 -78.08203125 201.1953125 C-81 201 -81 201 -84 199 C-84 198.01 -84 197.02 -84 196 C-82.48116966 195.9845388 -82.48116966 195.9845388 -80.93165588 195.96876526 C-71.41055996 195.87120265 -61.8895319 195.76848529 -52.36854649 195.66066074 C-47.47317875 195.60538835 -42.5778051 195.55196159 -37.68237305 195.50268555 C-32.96206724 195.45510549 -28.24183646 195.40276525 -23.5216198 195.34705925 C-21.71663203 195.32660678 -19.91162365 195.30789859 -18.10659981 195.29092598 C-15.58734784 195.26694571 -13.06823902 195.23688289 -10.54907227 195.20532227 C-9.79525772 195.1995668 -9.04144318 195.19381134 -8.26478577 195.18788147 C-4.84298079 195.4414287 -4.84298079 195.4414287 -2 194 C-1.8933415 192.10315009 -1.85755343 190.20229966 -1.84851074 188.30247498 C-1.84016708 187.06312698 -1.83182343 185.82377899 -1.82322693 184.546875 C-1.81891598 183.15942409 -1.81469228 181.7719729 -1.81054688 180.38452148 C-1.80260676 178.93205016 -1.79421899 177.47958122 -1.78541565 176.02711487 C-1.76729489 172.88365307 -1.75229871 169.74019679 -1.73963928 166.5967083 C-1.71934221 161.58267343 -1.69167635 156.56869551 -1.66296387 151.55470276 C-1.60783073 141.75323566 -1.55993736 131.95173977 -1.51302338 122.15023041 C-1.44166416 107.28631836 -1.36560129 92.42243797 -1.28125 77.55859375 C-1.27656204 76.7183955 -1.27187408 75.87819724 -1.26704407 75.01253843 C-1.12663106 50.00021615 -0.86947133 24.99967365 0 0 Z M-81 198 C-80.67 198.66 -80.34 199.32 -80 200 C-79.67 199.34 -79.34 198.68 -79 198 C-79.66 198 -80.32 198 -81 198 Z " fill="#752B67" transform="translate(288,412)"/>
<path d="M0 0 C11.95345802 0.61267566 23.87288571 0.72459943 35.83984375 0.6953125 C37.36535858 0.69448166 37.36535858 0.69448166 38.92169189 0.69363403 C51.68599323 0.68548762 64.42331142 0.58506399 77.16967773 -0.16162109 C79.24567405 -0.28187028 81.32398333 -0.36158055 83.40234375 -0.4296875 C83.73234375 -0.0996875 84.06234375 0.2303125 84.40234375 0.5703125 C86.45791036 0.66444937 88.51674556 0.68774248 90.57446289 0.68383789 C91.21834457 0.68398392 91.86222626 0.68412994 92.52561951 0.6842804 C94.66294678 0.68358135 96.80018788 0.67578941 98.9375 0.66796875 C100.4158066 0.66610454 101.89411382 0.66468065 103.37242126 0.66368103 C107.27033177 0.65985609 111.16820524 0.65002602 115.06610107 0.63897705 C119.04080708 0.62876242 123.01551904 0.6241833 126.99023438 0.61914062 C134.79428775 0.60840372 142.59831057 0.59132759 150.40234375 0.5703125 C150.40234375 1.2303125 150.40234375 1.8903125 150.40234375 2.5703125 C83.74234375 2.5703125 17.08234375 2.5703125 -51.59765625 2.5703125 C-49.59765625 0.5703125 -49.59765625 0.5703125 -46.75952148 0.35913086 C-44.9759021 0.38438843 -44.9759021 0.38438843 -43.15625 0.41015625 C-41.19655273 0.4265918 -41.19655273 0.4265918 -39.19726562 0.44335938 C-37.8098846 0.46410556 -36.4225145 0.48559531 -35.03515625 0.5078125 C-32.34633413 0.54461937 -29.65774337 0.57262397 -26.96875 0.59765625 C-25.7717749 0.61562256 -24.5747998 0.63358887 -23.34155273 0.65209961 C-20.56538481 0.59145297 -18.03413766 0.39908397 -15.29931641 0.04174805 C-10.15259007 -0.57553701 -5.16240411 -0.30775232 0 0 Z " fill="#832C67" transform="translate(422.59765625,521.4296875)"/>
<path d="M0 0 C27.06 0 54.12 0 82 0 C81.67 1.32 81.34 2.64 81 4 C77.81175432 5.59412284 74.37103338 5.10174735 70.875 5.0625 C70.12089844 5.05798828 69.36679687 5.05347656 68.58984375 5.04882812 C66.72652873 5.03703499 64.86325445 5.01909942 63 5 C63 4.34 63 3.68 63 3 C47.16 3 31.32 3 15 3 C15 3.66 15 4.32 15 5 C13.06280622 5.05406122 11.12518079 5.09282025 9.1875 5.125 C8.10855469 5.14820313 7.02960938 5.17140625 5.91796875 5.1953125 C3 5 3 5 0 3 C0 2.01 0 1.02 0 0 Z M3 2 C3.33 2.66 3.66 3.32 4 4 C4.33 3.34 4.66 2.68 5 2 C4.34 2 3.68 2 3 2 Z " fill="#602262" transform="translate(204,608)"/>
<path d="M0 0 C79.2 0 158.4 0 240 0 C239.34 0.99 238.68 1.98 238 3 C235.08499146 3.07820988 235.08499146 3.07820988 231.26220703 2.69459534 C224.71204229 2.13568507 218.22197688 1.8843736 211.64794922 1.87974548 C210.71904436 1.87849737 209.7901395 1.87724926 208.83308601 1.87596333 C205.82360438 1.87556703 202.81416369 1.88097933 199.8046875 1.88647461 C197.61516318 1.88675728 195.42563877 1.88659719 193.2361145 1.8860321 C187.34054734 1.88574724 181.44500086 1.8915934 175.54943848 1.89860606 C169.37019966 1.90489167 163.19096027 1.9054475 157.01171875 1.90663147 C145.33206105 1.90972951 133.6524128 1.91792218 121.97275925 1.92798096 C108.66671712 1.9391897 95.36067595 1.94466451 82.05463028 1.94967639 C54.70308163 1.96010618 27.35154135 1.97767584 0 2 C0 1.34 0 0.68 0 0 Z " fill="#7E2F6B" transform="translate(365,610)"/>
<path d="M0 0 C0.66 0 1.32 0 2 0 C2 28.71 2 57.42 2 87 C0.02 87.495 0.02 87.495 -2 88 C-2 82.39 -2 76.78 -2 71 C-1.34 71 -0.68 71 0 71 C-0.0707373 70.43039551 -0.14147461 69.86079102 -0.21435547 69.27392578 C-1.02372621 62.12614374 -1.1526428 55.06360776 -1.125 47.875 C-1.12306641 46.64048096 -1.12113281 45.40596191 -1.11914062 44.1340332 C-1.05285903 29.41491514 -0.54501234 14.70808572 0 0 Z " fill="#642664" transform="translate(201,517)"/>
<path d="M0 0 C2.98543648 4.47815472 4.25339854 7.13432332 4.23046875 12.578125 C4.22853516 13.65707031 4.22660156 14.73601562 4.22460938 15.84765625 C4.21236328 16.97042969 4.20011719 18.09320313 4.1875 19.25 C4.18685547 20.35730469 4.18621094 21.46460938 4.18554688 22.60546875 C4.16166016 27.06963054 4.08328628 31.37420897 3.4934082 35.80639648 C2.90047029 40.2865121 2.8908264 44.69410793 2.9375 49.20703125 C2.94128662 50.0542424 2.94507324 50.90145355 2.94897461 51.77433777 C2.9610906 54.45377952 2.97973265 57.1331083 3 59.8125 C3.02657571 63.36067399 3.04655106 66.90879543 3.0625 70.45703125 C3.07079834 71.26952835 3.07909668 72.08202545 3.08764648 72.91914368 C3.10205746 76.21194228 3.04905588 78.85283237 2 82 C1.34 82 0.68 82 0 82 C0 54.94 0 27.88 0 0 Z " fill="#AF2A5C" transform="translate(607,205)"/>
<path d="M0 0 C0.66 0 1.32 0 2 0 C2 33.66 2 67.32 2 102 C1.34 102 0.68 102 0 102 C0.01160156 100.93523437 0.02320313 99.87046875 0.03515625 98.7734375 C0.10489639 89.503364 0.13808261 80.21706409 -1 71 C-1.33 70.67 -1.66 70.34 -2 70 C-2.04080783 68.00041636 -2.04254356 65.99954746 -2 64 C-1.34 64 -0.68 64 0 64 C0 42.88 0 21.76 0 0 Z " fill="#7B306E" transform="translate(199,413)"/>
<path d="M0 0 C0.66 0.33 1.32 0.66 2 1 C2 27.07 2 53.14 2 80 C1.01 80 0.02 80 -1 80 C-0.67 53.6 -0.34 27.2 0 0 Z " fill="#6E2560" transform="translate(361,526)"/>
<path d="M0 0 C0.66 0 1.32 0 2 0 C2.33 27.06 2.66 54.12 3 82 C2.01 82 1.02 82 0 82 C0 54.94 0 27.88 0 0 Z " fill="#97265A" transform="translate(607,365)"/>
<path d="M0 0 C2.48425883 -0.28672361 4.71860892 -0.3786773 7.20361328 -0.34057617 C8.3159584 -0.34123329 8.3159584 -0.34123329 9.45077515 -0.34190369 C11.90755331 -0.33980979 14.36365322 -0.31645125 16.8203125 -0.29296875 C18.52138903 -0.28737491 20.22247038 -0.28310381 21.92355347 -0.28010559 C26.4051849 -0.26864004 30.88652559 -0.23915835 35.36804199 -0.20599365 C39.93933173 -0.17532948 44.51066835 -0.16160809 49.08203125 -0.14648438 C58.05481539 -0.11429013 67.02738354 -0.06307329 76 0 C76 0.66 76 1.32 76 2 C72.81175432 3.59412284 69.37103338 3.10174735 65.875 3.0625 C65.12089844 3.05798828 64.36679687 3.05347656 63.58984375 3.04882812 C61.72652873 3.03703499 59.86325445 3.01909942 58 3 C58 2.34 58 1.68 58 1 C42.16 1 26.32 1 10 1 C10 1.66 10 2.32 10 3 C6.04 3 2.08 3 -2 3 C-1.34 2.01 -0.68 1.02 0 0 Z " fill="#6D2E6F" transform="translate(209,610)"/>
</svg>
