<svg width="76" height="41" viewBox="0 0 76 41" fill="none" xmlns="http://www.w3.org/2000/svg">
<path d="M19.392 40.616C16.704 40.616 14.2213 40.0933 11.944 39.048C9.66667 37.9653 7.65067 36.5467 5.896 34.792C4.14133 33 2.76 30.9093 1.752 28.52C0.744 26.0933 0.24 23.4053 0.24 20.456C0.24 17.5813 0.744 14.9307 1.752 12.504C2.79733 10.04 4.17867 7.89333 5.896 6.064C7.61333 4.272 9.61067 2.85333 11.888 1.808C14.2027 0.762664 16.704 0.239998 19.392 0.239998C22.2293 0.239998 24.936 0.893332 27.512 2.2C30.088 3.46933 32.4773 5.448 34.68 8.136L29.248 12.616C27.7173 10.712 26.1307 9.34933 24.488 8.528C22.8453 7.66933 21.1467 7.24 19.392 7.24C17.712 7.24 16.144 7.576 14.688 8.248C13.2693 8.92 11.9813 9.85333 10.824 11.048C9.704 12.2053 8.82667 13.5867 8.192 15.192C7.55733 16.76 7.24 18.5147 7.24 20.456C7.24 22.3973 7.55733 24.152 8.192 25.72C8.82667 27.2507 9.704 28.6133 10.824 29.808C11.944 31.0027 13.232 31.936 14.688 32.608C16.144 33.28 17.712 33.616 19.392 33.616C21.1467 33.616 22.8453 33.2053 24.488 32.384C26.1307 31.5253 27.7173 30.144 29.248 28.24L34.68 32.72C32.4773 35.408 30.088 37.4053 27.512 38.712C24.936 39.9813 22.2293 40.616 19.392 40.616ZM52.7855 40.56C51.1055 40.56 49.4068 40.2987 47.6895 39.776C46.0095 39.2533 44.4228 38.544 42.9295 37.648C41.4735 36.7147 40.2228 35.688 39.1775 34.568L44.1615 29.752C45.2815 30.9093 46.6255 31.8427 48.1935 32.552C49.7988 33.2613 51.2922 33.616 52.6735 33.616C54.4282 33.616 55.9028 33.112 57.0975 32.104C58.3295 31.0587 58.9455 29.8267 58.9455 28.408C58.9455 27.2507 58.5162 26.2613 57.6575 25.44C56.7988 24.5813 55.7348 23.9653 54.4655 23.592C51.1428 22.696 48.3055 21.744 45.9535 20.736C43.6388 19.728 41.9215 18.4027 40.8015 16.76C39.6815 15.1173 39.2708 12.9147 39.5695 10.152C39.8308 7.98666 40.5402 6.19467 41.6975 4.776C42.8922 3.32 44.3855 2.23733 46.1775 1.528C48.0068 0.818665 50.0228 0.463998 52.2255 0.463998C54.2042 0.463998 56.2762 0.781332 58.4415 1.416C60.6068 2.01333 62.7535 3.02133 64.8815 4.44L60.1215 9.368C59.0388 8.77066 57.8628 8.26667 56.5935 7.856C55.3242 7.44533 54.0175 7.22133 52.6735 7.184C51.6282 7.14667 50.6202 7.25867 49.6495 7.52C48.7162 7.744 47.9322 8.15467 47.2975 8.752C46.6628 9.312 46.3268 10.0773 46.2895 11.048C46.2522 12.1307 46.5322 12.9707 47.1295 13.568C47.7268 14.1653 48.5482 14.6507 49.5935 15.024C50.6762 15.3973 51.9268 15.808 53.3455 16.256C55.9588 16.9653 58.1802 17.7867 60.0095 18.72C61.8388 19.616 63.2388 20.8293 64.2095 22.36C65.1802 23.8533 65.6655 25.8693 65.6655 28.408C65.6655 30.6853 65.0868 32.7387 63.9295 34.568C62.7722 36.3973 61.2228 37.8533 59.2815 38.936C57.3402 40.0187 55.1748 40.56 52.7855 40.56ZM72.1466 40.336C71.1013 40.2987 70.2053 39.944 69.4586 39.272C68.7493 38.5627 68.4133 37.6853 68.4506 36.64C68.488 35.632 68.8426 34.792 69.5146 34.12C70.224 33.448 71.1013 33.0933 72.1466 33.056C73.1546 33.0187 73.9946 33.3547 74.6666 34.064C75.3386 34.7733 75.6933 35.632 75.7306 36.64C75.768 37.6853 75.432 38.5813 74.7226 39.328C74.0133 40.0373 73.1546 40.3733 72.1466 40.336Z" fill="black"/>
</svg>
