<svg width="731" height="311" viewBox="0 0 731 311" fill="none" xmlns="http://www.w3.org/2000/svg">
<path d="M103.391 169.098H62.2776V154.742C62.2776 145.693 61.887 140.029 61.1058 137.75C60.3245 135.471 58.4691 134.332 55.5394 134.332C53.0003 134.332 51.275 135.309 50.3636 137.262C49.4521 139.215 48.9964 144.228 48.9964 152.301V228.18C48.9964 235.276 49.4521 239.964 50.3636 242.242C51.275 244.456 53.098 245.562 55.8323 245.562C58.8271 245.562 60.8454 244.293 61.887 241.754C62.9938 239.215 63.5472 234.267 63.5472 226.91V208.16H55.2464V184.137H103.391V269H77.512L73.7034 257.672C70.904 262.555 67.3558 266.233 63.0589 268.707C58.8271 271.116 53.8141 272.32 48.0198 272.32C41.1188 272.32 34.6409 270.66 28.5862 267.34C22.5967 263.954 18.0394 259.788 14.9144 254.84C11.7894 249.892 9.83624 244.716 9.05499 239.312C8.27374 233.844 7.88312 225.673 7.88312 214.801V167.828C7.88312 152.724 8.69692 141.754 10.3245 134.918C11.9521 128.082 16.6071 121.832 24.2894 116.168C32.0368 110.439 42.0303 107.574 54.2698 107.574C66.3141 107.574 76.3076 110.048 84.2503 114.996C92.193 119.944 97.3688 125.836 99.7776 132.672C102.187 139.443 103.391 149.306 103.391 162.262V169.098ZM207.492 184.918V216.656C207.492 228.31 206.907 236.871 205.735 242.34C204.563 247.743 202.056 252.822 198.215 257.574C194.374 262.262 189.426 265.745 183.371 268.023C177.382 270.237 170.481 271.344 162.668 271.344C153.944 271.344 146.555 270.4 140.5 268.512C134.446 266.559 129.726 263.661 126.34 259.82C123.02 255.914 120.644 251.227 119.211 245.758C117.779 240.224 117.063 231.956 117.063 220.953V187.75C117.063 175.706 118.365 166.298 120.969 159.527C123.573 152.757 128.261 147.32 135.032 143.219C141.802 139.117 150.461 137.066 161.008 137.066C169.862 137.066 177.447 138.401 183.762 141.07C190.142 143.674 195.058 147.092 198.508 151.324C201.959 155.556 204.302 159.918 205.539 164.41C206.841 168.902 207.492 175.738 207.492 184.918ZM168.039 175.152C168.039 168.512 167.681 164.345 166.965 162.652C166.249 160.895 164.719 160.016 162.375 160.016C160.032 160.016 158.469 160.895 157.688 162.652C156.907 164.345 156.516 168.512 156.516 175.152V233.648C156.516 239.768 156.907 243.772 157.688 245.66C158.469 247.483 159.999 248.395 162.278 248.395C164.621 248.395 166.151 247.548 166.867 245.855C167.649 244.163 168.039 240.517 168.039 234.918V175.152ZM309.836 184.918V216.656C309.836 228.31 309.25 236.871 308.078 242.34C306.907 247.743 304.4 252.822 300.559 257.574C296.718 262.262 291.77 265.745 285.715 268.023C279.726 270.237 272.825 271.344 265.012 271.344C256.288 271.344 248.899 270.4 242.844 268.512C236.789 266.559 232.069 263.661 228.684 259.82C225.364 255.914 222.987 251.227 221.555 245.758C220.123 240.224 219.407 231.956 219.407 220.953V187.75C219.407 175.706 220.709 166.298 223.313 159.527C225.917 152.757 230.604 147.32 237.375 143.219C244.146 139.117 252.805 137.066 263.352 137.066C272.206 137.066 279.791 138.401 286.106 141.07C292.486 143.674 297.401 147.092 300.852 151.324C304.302 155.556 306.646 159.918 307.883 164.41C309.185 168.902 309.836 175.738 309.836 184.918ZM270.383 175.152C270.383 168.512 270.025 164.345 269.309 162.652C268.593 160.895 267.063 160.016 264.719 160.016C262.375 160.016 260.813 160.895 260.032 162.652C259.25 164.345 258.86 168.512 258.86 175.152V233.648C258.86 239.768 259.25 243.772 260.032 245.66C260.813 247.483 262.343 248.395 264.621 248.395C266.965 248.395 268.495 247.548 269.211 245.855C269.992 244.163 270.383 240.517 270.383 234.918V175.152ZM412.668 110.895V269H373.215V259.625C369.439 263.531 365.468 266.461 361.301 268.414C357.134 270.367 352.772 271.344 348.215 271.344C342.095 271.344 336.789 269.749 332.297 266.559C327.805 263.303 324.908 259.56 323.606 255.328C322.369 251.096 321.75 244.195 321.75 234.625V173.98C321.75 164.02 322.369 156.956 323.606 152.789C324.908 148.622 327.838 144.977 332.395 141.852C336.952 138.661 342.388 137.066 348.703 137.066C353.586 137.066 358.046 137.945 362.082 139.703C366.184 141.461 369.895 144.098 373.215 147.613V110.895H412.668ZM373.215 172.027C373.215 167.275 372.792 164.085 371.946 162.457C371.164 160.829 369.569 160.016 367.16 160.016C364.817 160.016 363.222 160.764 362.375 162.262C361.594 163.694 361.203 166.949 361.203 172.027V235.504C361.203 240.777 361.594 244.26 362.375 245.953C363.157 247.581 364.654 248.395 366.867 248.395C369.407 248.395 371.099 247.483 371.946 245.66C372.792 243.772 373.215 239.215 373.215 231.988V172.027ZM449.778 110.895V125.055C449.778 132.411 448.899 138.499 447.141 143.316C445.383 148.069 442.323 152.105 437.961 155.426C433.664 158.681 428.782 160.895 423.313 162.066V150.641C427.219 148.492 429.433 145.562 429.953 141.852H423.313V110.895H449.778Z" fill="black"/>
<path d="M723.897 180.816H688.936V173.785C688.936 167.796 688.578 164.02 687.862 162.457C687.211 160.829 685.518 160.016 682.784 160.016C680.57 160.016 678.91 160.764 677.803 162.262C676.697 163.694 676.143 165.875 676.143 168.805C676.143 172.776 676.404 175.706 676.924 177.594C677.51 179.417 679.17 181.435 681.905 183.648C684.704 185.862 690.401 189.085 698.995 193.316C710.453 198.915 717.973 204.189 721.553 209.137C725.134 214.085 726.924 221.279 726.924 230.719C726.924 241.266 725.557 249.241 722.823 254.645C720.088 259.983 715.499 264.117 709.053 267.047C702.673 269.911 694.958 271.344 685.909 271.344C675.883 271.344 667.289 269.781 660.128 266.656C653.031 263.531 648.148 259.299 645.479 253.961C642.81 248.622 641.475 240.549 641.475 229.742V223.492H676.436V231.695C676.436 238.661 676.859 243.186 677.706 245.27C678.617 247.353 680.375 248.395 682.979 248.395C685.779 248.395 687.732 247.711 688.838 246.344C689.945 244.911 690.499 241.949 690.499 237.457C690.499 231.272 689.782 227.398 688.35 225.836C686.853 224.273 679.203 219.651 665.401 211.969C653.812 205.458 646.749 199.566 644.21 194.293C641.67 188.954 640.401 182.639 640.401 175.348C640.401 164.996 641.768 157.379 644.503 152.496C647.237 147.548 651.859 143.74 658.37 141.07C664.945 138.401 672.562 137.066 681.221 137.066C689.815 137.066 697.107 138.173 703.096 140.387C709.151 142.535 713.773 145.4 716.963 148.98C720.219 152.561 722.172 155.882 722.823 158.941C723.539 162.001 723.897 166.786 723.897 173.297V180.816Z" fill="black"/>
<mask id="mask0_334_140" style="mask-type:alpha" maskUnits="userSpaceOnUse" x="452" y="0" width="208" height="278">
<path d="M582.249 218.194V243.443C582.249 257.698 570.662 269.255 556.367 269.255C542.208 269.255 530.677 257.91 530.485 243.791L530.138 218.194M582.249 218.194H530.138M582.249 218.194C582.249 209.4 587.856 201.761 595.252 196.973C614.129 184.756 626.554 163.972 626.554 140.387C626.554 102.786 594.975 72.3049 556.021 72.3049C517.068 72.3049 485.489 102.786 485.489 140.387C485.489 163.97 497.912 184.754 516.786 196.971C524.217 201.781 529.929 209.362 530.138 218.194M556.021 37.1357V9M461.262 48.1434L481.211 68.0381M650.781 48.1446L630.83 68.0398" stroke="black" stroke-width="17.1324" stroke-linecap="round" stroke-linejoin="round"/>
</mask>
<g mask="url(#mask0_334_140)">
<path d="M443.346 -20.7094H669.288V350.237H443.346V-20.7094Z" fill="url(#paint0_linear_334_140)"/>
</g>
<defs>
<linearGradient id="paint0_linear_334_140" x1="556.317" y1="-20.7094" x2="556.317" y2="350.237" gradientUnits="userSpaceOnUse">
<stop stop-color="#F4B651"/>
<stop offset="0.671875" stop-color="#F28DBE"/>
<stop offset="0.9999" stop-color="#F283DA"/>
<stop offset="1" stop-color="white"/>
</linearGradient>
</defs>
</svg>
