<?xml version="1.0" encoding="iso-8859-1"?>
<!-- Generator: Adobe Illustrator 23.0.3, SVG Export Plug-In . SVG Version: 6.00 Build 0)  -->
<svg version="1.1" id="Layer_1" xmlns="http://www.w3.org/2000/svg" xmlns:xlink="http://www.w3.org/1999/xlink" x="0px" y="0px"
	 viewBox="0 0 32 32" style="enable-background:new 0 0 32 32;" xml:space="preserve">
<g>
	<path d="M21.4,15.333c0.165-0.021,0.332-0.021,0.497,0c0.089-0.205,0.104-0.558,0.024-0.941c-0.119-0.57-0.281-0.916-0.614-0.862
		c-0.333,0.054-0.346,0.467-0.227,1.038c0.067,0.321,0.187,0.595,0.321,0.765H21.4z M18.537,15.786
		c0.239,0.107,0.385,0.174,0.443,0.114c0.101-0.104-0.186-0.502-0.648-0.7c-0.542-0.225-1.163-0.15-1.636,0.197
		c-0.16,0.117-0.311,0.279-0.289,0.377c0.045,0.2,0.535-0.145,1.208-0.186C17.989,15.565,18.299,15.682,18.537,15.786L18.537,15.786
		z M18.056,16.06c-0.485,0.076-0.802,0.349-0.72,0.54c0.048,0.018,0.063,0.043,0.278-0.043c0.319-0.12,0.664-0.156,1.001-0.104
		c0.156,0.018,0.23,0.028,0.264-0.026C18.957,16.308,18.574,15.999,18.056,16.06L18.056,16.06z M20.952,16.974
		c0.181-0.367-0.583-0.745-0.764-0.374c-0.182,0.37,0.584,0.742,0.765,0.373L20.952,16.974z M21.789,15.88
		c-0.409-0.007-0.425,0.845-0.014,0.852c0.411,0.007,0.427-0.845,0.015-0.853L21.789,15.88z M10.094,20.098
		c-0.071,0.017-0.321,0.078-0.453-0.126c-0.278-0.428,0.594-1.089,0.16-1.912c-0.486-0.934-1.487-0.724-1.874-0.296
		c-0.466,0.513-0.466,1.258-0.267,1.287c0.228,0.03,0.218-0.346,0.394-0.622c0.206-0.318,0.631-0.409,0.949-0.203
		c0.002,0.001,0.004,0.002,0.006,0.004c0.62,0.406,0.073,0.949,0.122,1.53c0.074,0.892,0.985,0.875,1.154,0.481
		c0.022-0.04,0.018-0.089-0.011-0.125c0.002,0.048,0.036-0.069-0.179-0.021L10.094,20.098z M26.115,19.185
		c-0.179-0.627-0.294-0.699-0.511-0.994c0.131-0.196,0.817-1.283-0.164-2.312c-0.556-0.584-1.664-0.987-2.049-1.094
		c-0.08-0.609,0.249-3.138-1.15-4.437C23.352,9.197,24.002,7.928,24,6.839c-0.003-2.093-2.53-2.726-5.698-1.415l-0.671,0.285
		c-0.003-0.003-1.214-1.19-1.232-1.206c-3.611-3.15-14.904,9.402-11.293,12.451l0.789,0.669c-0.213,0.571-0.288,1.185-0.219,1.791
		c0.18,1.785,1.924,3.23,3.61,3.228c3.086,7.113,14.32,7.124,17.228,0.16C26.606,22.562,27,21.486,27,20.536
		s-0.539-1.351-0.884-1.351L26.115,19.185z M9.223,21.759c-1.22-0.033-2.537-1.131-2.668-2.433c-0.33-3.277,3.969-4.023,4.49-0.659
		c0.243,1.584-0.25,3.127-1.824,3.09L9.223,21.759z M8.234,15.655c-0.81,0.158-1.525,0.617-1.962,1.253
		c-0.261-0.218-0.748-0.641-0.833-0.802c-0.695-1.328,0.761-3.902,1.78-5.357c2.518-3.594,6.462-6.313,8.288-5.82
		c0.297,0.084,1.28,1.224,1.28,1.224s-1.825,1.012-3.517,2.424C10.989,10.334,9.266,12.886,8.234,15.655L8.234,15.655z
		 M21.003,21.062c0,0-1.91,0.283-3.716-0.378c0.332-1.078,1.443,0.326,5.153-0.738c0.817-0.234,1.742-0.592,2.578-1.253
		c0.247,0.257,0.456,0.749,0.529,1.195c0.196-0.035,0.762-0.028,0.612,0.968c-0.176,1.062-0.627,1.924-1.386,2.718
		c-0.474,0.514-1.038,0.936-1.665,1.246c-0.349,0.183-0.713,0.336-1.087,0.459c-2.86,0.934-5.789-0.093-6.735-2.299
		c-0.077-0.168-0.14-0.342-0.19-0.521c-0.403-1.454-0.061-3.198,1.007-4.296c0.066-0.07,0.133-0.152,0.133-0.256
		c-0.009-0.089-0.045-0.174-0.103-0.243c-0.374-0.541-1.667-1.465-1.407-3.252c0.187-1.283,1.309-2.187,2.356-2.133l0.267,0.016
		c0.453,0.027,0.849,0.085,1.223,0.1c0.625,0.027,1.187-0.064,1.852-0.618c0.225-0.187,0.405-0.35,0.709-0.401
		c0.248-0.062,0.511-0.018,0.727,0.12c0.535,0.355,0.609,1.215,0.637,1.844c0.016,0.359,0.059,1.229,0.074,1.477
		c0.034,0.57,0.183,0.651,0.487,0.748c0.171,0.056,0.329,0.098,0.562,0.164c0.706,0.198,0.974,0.502,1.242,0.761
		c0.136,0.134,0.225,0.308,0.253,0.497c0.083,0.608-0.323,1.255-1.793,1.937c-2.497,1.159-5.008,0.772-5.371,0.731
		c-1.077-0.145-1.691,1.247-1.045,2.2c1.21,1.786,6.543,1.069,8.091-1.141c0.037-0.053,0.006-0.085-0.039-0.053
		c-2.233,1.528-5.188,2.042-6.867,1.39c-0.255-0.099-0.787-0.344-0.852-0.891c2.331,0.721,3.795,0.04,3.795,0.04
		S21.141,21.048,21.003,21.062L21.003,21.062z M12.885,10.735c0.895-1.034,1.997-1.934,2.984-2.439
		c0.019-0.011,0.042-0.005,0.053,0.014c0.007,0.012,0.007,0.027,0,0.04c-0.078,0.142-0.229,0.446-0.277,0.676
		c-0.005,0.022,0.008,0.043,0.03,0.048c0.011,0.003,0.023,0,0.032-0.006c0.614-0.419,1.683-0.867,2.619-0.925
		c0.023-0.002,0.042,0.016,0.044,0.038c0.001,0.014-0.005,0.027-0.016,0.036C18.2,8.336,18.061,8.475,17.942,8.63
		c-0.013,0.018-0.009,0.043,0.009,0.056c0.007,0.005,0.014,0.007,0.023,0.008c0.658,0.005,1.585,0.235,2.192,0.574
		c0.041,0.023,0.012,0.102-0.034,0.092c-3.718-0.852-6.579,0.991-7.19,1.434c-0.019,0.012-0.044,0.007-0.056-0.012
		c-0.01-0.015-0.008-0.034,0.003-0.048L12.885,10.735z"/>
</g>
</svg>