<?xml version="1.0" encoding="UTF-8"?>
<svg id="Calque_2" data-name="Calque 2" xmlns="http://www.w3.org/2000/svg" viewBox="0 0 63.32 69.45">
  <defs>
    <style>
      .cls-1 {
        fill: #3c6;
      }

      .cls-1, .cls-2, .cls-3, .cls-4, .cls-5 {
        stroke-width: 0px;
      }

      .cls-2 {
        fill: #f15d46;
      }

      .cls-6 {
        fill: none;
        stroke: #fff;
        stroke-miterlimit: 10;
        stroke-width: 2px;
      }

      .cls-3 {
        fill: #fff;
      }

      .cls-4 {
        fill: #e7e9eb;
      }

      .cls-5 {
        fill: #a09eb6;
      }
    </style>
  </defs>
  <g id="Calque_1-2" data-name="Calque 1">
    <g id="Support_de_notes" data-name="Support de notes">
      <g>
        <polygon class="cls-3" points="0 17.11 41.11 0 63.32 51.57 21.7 69.45 0 17.11"/>
        <polygon class="cls-4" points="5.49 19.28 38.55 4.98 54.13 40.72 49.4 53.62 24.26 64.47 5.49 19.28"/>
        <polygon class="cls-5" points="44.04 44.68 47.92 54.26 49.4 53.62 54.13 40.72 53.66 39.64 43.79 44.05 44.04 44.68"/>
        <path class="cls-2" d="m10.4,13.15l3.51,8.23,20.74-8.68-3.46-8.58-4.18,1.74s-1.75-5.1-8.32-2.35-3.99,7.47-3.99,7.47l-4.31,1.79v.37Z"/>
        <circle class="cls-1" cx="30.52" cy="31.94" r="12.22"/>
      </g>
      <g id="Coche">
        <line class="cls-6" x1="24.09" y1="35.57" x2="28.6" y2="37.62"/>
        <line class="cls-6" x1="27.89" y1="38.41" x2="33.98" y2="25.42"/>
      </g>
    </g>
  </g>
</svg>