<svg width="40" height="78" viewBox="0 0 40 78" fill="none" xmlns="http://www.w3.org/2000/svg">
<mask id="mask0_161_2" style="mask-type:alpha" maskUnits="userSpaceOnUse" x="0" y="17" width="39" height="47">
<path d="M17.984 63.024C14.912 63.024 11.7973 62.6827 8.64 62C5.48267 61.3173 2.70933 60.3147 0.32 58.992L5.44 47.856C7.36 48.9653 9.36533 49.7973 11.456 50.352C13.5467 50.864 15.5307 51.12 17.408 51.12C19.1147 51.12 20.5227 50.8213 21.632 50.224C22.7413 49.6267 23.296 48.752 23.296 47.6C23.296 46.96 23.104 46.4053 22.72 45.936C22.336 45.424 21.6533 45.04 20.672 44.784C19.7333 44.528 18.3467 44.4 16.512 44.4H3.52L5.76 17.2H35.52V28.592H11.072L18.688 22.128L17.344 39.472L9.728 33.008H20.16C24.5973 33.008 28.1387 33.648 30.784 34.928C33.472 36.208 35.4133 37.936 36.608 40.112C37.8453 42.2453 38.464 44.6347 38.464 47.28C38.464 49.9253 37.7387 52.464 36.288 54.896C34.88 57.2853 32.6613 59.248 29.632 60.784C26.6453 62.2773 22.7627 63.024 17.984 63.024Z" fill="black"/>
</mask>
<g mask="url(#mask0_161_2)">
<rect x="-27" y="-11" width="100" height="100" fill="url(#paint0_linear_161_2)"/>
</g>
<defs>
<linearGradient id="paint0_linear_161_2" x1="23" y1="-11" x2="23" y2="89" gradientUnits="userSpaceOnUse">
<stop stop-color="#E5BDFF"/>
<stop offset="1" stop-color="#BBDAFE"/>
</linearGradient>
</defs>
</svg>
