<svg width="41" height="78" viewBox="0 0 41 78" fill="none" xmlns="http://www.w3.org/2000/svg">
<mask id="mask0_36_12" style="mask-type:alpha" maskUnits="userSpaceOnUse" x="0" y="17" width="39" height="47">
<path d="M18.28 63.024C15.208 63.024 12.0933 62.6827 8.936 62C5.77867 61.3173 3.00533 60.3147 0.616 58.992L5.736 47.856C7.656 48.9653 9.66133 49.7973 11.752 50.352C13.8853 50.864 15.8907 51.12 17.768 51.12C19.4747 51.12 20.8613 50.8427 21.928 50.288C23.0373 49.6907 23.592 48.816 23.592 47.664C23.592 46.6827 23.1867 45.936 22.376 45.424C21.5653 44.8693 20.2 44.592 18.28 44.592H12.328V35.312L23.912 23.536L25.256 28.592H2.92V17.2H36.328V26.48L24.744 38.256L17.512 34.16H21.48C27.112 34.16 31.4 35.4187 34.344 37.936C37.288 40.4533 38.76 43.696 38.76 47.664C38.76 50.224 38.0347 52.6773 36.584 55.024C35.176 57.3707 32.9573 59.2907 29.928 60.784C26.9413 62.2773 23.0587 63.024 18.28 63.024Z" fill="black"/>
</mask>
<g mask="url(#mask0_36_12)">
<rect x="-29" y="-11" width="100" height="100" fill="url(#paint0_linear_36_12)"/>
</g>
<defs>
<linearGradient id="paint0_linear_36_12" x1="21" y1="-11" x2="21" y2="89" gradientUnits="userSpaceOnUse">
<stop stop-color="#E5BDFF"/>
<stop offset="1" stop-color="#BBDAFE"/>
</linearGradient>
</defs>
</svg>
