<svg width="40" height="78" viewBox="0 0 40 78" fill="none" xmlns="http://www.w3.org/2000/svg">
<mask id="mask0_36_11" style="mask-type:alpha" maskUnits="userSpaceOnUse" x="0" y="16" width="39" height="46">
<path d="M2.792 62V52.72L18.984 37.744C20.008 36.7627 20.7547 35.9093 21.224 35.184C21.736 34.4587 22.0773 33.8187 22.248 33.264C22.4187 32.6667 22.504 32.112 22.504 31.6C22.504 30.4907 22.1413 29.6373 21.416 29.04C20.6907 28.4 19.6027 28.08 18.152 28.08C16.8293 28.08 15.5707 28.4427 14.376 29.168C13.1813 29.8507 12.2427 30.8747 11.56 32.24L0.168 26.544C1.78933 23.472 4.22133 20.976 7.464 19.056C10.7067 17.136 14.7387 16.176 19.56 16.176C23.1013 16.176 26.2373 16.752 28.968 17.904C31.6987 19.056 33.832 20.6773 35.368 22.768C36.904 24.8587 37.672 27.3333 37.672 30.192C37.672 31.6427 37.48 33.0933 37.096 34.544C36.7547 35.9947 36.0293 37.5307 34.92 39.152C33.8107 40.7307 32.168 42.5013 29.992 44.464L17.832 55.536L15.464 50.288H38.696V62H2.792Z" fill="black"/>
</mask>
<g mask="url(#mask0_36_11)">
<rect x="-30" y="-11" width="100" height="100" fill="url(#paint0_linear_36_11)"/>
</g>
<defs>
<linearGradient id="paint0_linear_36_11" x1="20" y1="-11" x2="20" y2="89" gradientUnits="userSpaceOnUse">
<stop stop-color="#E5BDFF"/>
<stop offset="1" stop-color="#BBDAFE"/>
</linearGradient>
</defs>
</svg>
