<?xml version="1.0" encoding="UTF-8"?>
<svg id="Calque_2" data-name="Calque 2" xmlns="http://www.w3.org/2000/svg" viewBox="0 0 300 113.09">
  <g id="Montagnes_russes" data-name="Montagnes russes">
    <g>
      <rect x="3" y="76.08" width="2" height="37" style="fill: #ff6f5c; stroke-width: 0px;"/>
      <rect x="8" y="69.08" width="2" height="44" style="fill: #ff6f5c; stroke-width: 0px;"/>
      <rect x="13" y="64.08" width="2" height="49" style="fill: #ff6f5c; stroke-width: 0px;"/>
      <rect x="18" y="58.08" width="2" height="55" style="fill: #ff6f5c; stroke-width: 0px;"/>
      <rect x="23" y="52.08" width="2" height="61" style="fill: #ff6f5c; stroke-width: 0px;"/>
      <rect x="28" y="47.08" width="2" height="66" style="fill: #ff6f5c; stroke-width: 0px;"/>
      <rect x="33" y="42.08" width="2" height="71" style="fill: #ff6f5c; stroke-width: 0px;"/>
      <rect x="38" y="37.08" width="2" height="76" style="fill: #ff6f5c; stroke-width: 0px;"/>
      <rect x="43" y="33.08" width="2" height="80" style="fill: #ff6f5c; stroke-width: 0px;"/>
      <rect x="48" y="29.08" width="2" height="84" style="fill: #ff6f5c; stroke-width: 0px;"/>
      <rect x="53" y="25.08" width="2" height="88" style="fill: #ff6f5c; stroke-width: 0px;"/>
      <rect x="58" y="22.08" width="2" height="91" style="fill: #ff6f5c; stroke-width: 0px;"/>
      <rect x="63" y="20.08" width="2" height="93" style="fill: #ff6f5c; stroke-width: 0px;"/>
      <rect x="68" y="19.08" width="2" height="94" style="fill: #ff6f5c; stroke-width: 0px;"/>
      <rect x="73" y="20.08" width="2" height="93" style="fill: #ff6f5c; stroke-width: 0px;"/>
      <rect x="78" y="22.08" width="2" height="91" style="fill: #ff6f5c; stroke-width: 0px;"/>
      <rect x="83" y="25.08" width="2" height="88" style="fill: #ff6f5c; stroke-width: 0px;"/>
      <rect x="88" y="29.08" width="2" height="84" style="fill: #ff6f5c; stroke-width: 0px;"/>
      <rect x="93" y="33.08" width="2" height="80" style="fill: #ff6f5c; stroke-width: 0px;"/>
      <rect x="98" y="37.08" width="2" height="76" style="fill: #ff6f5c; stroke-width: 0px;"/>
      <rect x="103" y="41.08" width="2" height="72" style="fill: #ff6f5c; stroke-width: 0px;"/>
      <rect x="108" y="44.08" width="2" height="69" style="fill: #ff6f5c; stroke-width: 0px;"/>
      <rect x="113" y="47.08" width="2" height="66" style="fill: #ff6f5c; stroke-width: 0px;"/>
      <rect x="118" y="50.08" width="2" height="63" style="fill: #ff6f5c; stroke-width: 0px;"/>
      <rect x="123" y="51.08" width="2" height="62" style="fill: #ff6f5c; stroke-width: 0px;"/>
      <rect x="128" y="52.08" width="2" height="61" style="fill: #ff6f5c; stroke-width: 0px;"/>
      <rect x="133" y="53.08" width="2" height="60" style="fill: #ff6f5c; stroke-width: 0px;"/>
      <rect x="138" y="52.08" width="2" height="61" style="fill: #ff6f5c; stroke-width: 0px;"/>
      <rect x="143" y="50.08" width="2" height="63" style="fill: #ff6f5c; stroke-width: 0px;"/>
      <rect x="148" y="47.08" width="2" height="66" style="fill: #ff6f5c; stroke-width: 0px;"/>
      <rect x="153" y="41.08" width="2" height="72" style="fill: #ff6f5c; stroke-width: 0px;"/>
      <rect x="158" y="33.08" width="2" height="80" style="fill: #ff6f5c; stroke-width: 0px;"/>
      <rect x="163" y="24.08" width="2" height="89" style="fill: #ff6f5c; stroke-width: 0px;"/>
      <rect x="168" y="16.08" width="2" height="97" style="fill: #ff6f5c; stroke-width: 0px;"/>
      <rect x="173" y="11.08" width="2" height="102" style="fill: #ff6f5c; stroke-width: 0px;"/>
      <rect x="178" y="8.08" width="2" height="105" style="fill: #ff6f5c; stroke-width: 0px;"/>
      <rect x="183" y="5.08" width="2" height="108" style="fill: #ff6f5c; stroke-width: 0px;"/>
      <rect x="134.5" y="57.08" width="110" height="2" transform="translate(129.75 247.07) rotate(-89.5)" style="fill: #ff6f5c; stroke-width: 0px;"/>
      <rect x="193" y="2.08" width="2" height="111" style="fill: #ff6f5c; stroke-width: 0px;"/>
      <rect x="198" y="2.08" width="2" height="111" style="fill: #ff6f5c; stroke-width: 0px;"/>
      <rect x="203" y="2.08" width="2" height="111" style="fill: #ff6f5c; stroke-width: 0px;"/>
      <rect x="208" y="3.08" width="2" height="110" style="fill: #ff6f5c; stroke-width: 0px;"/>
      <rect x="213" y="4.08" width="2" height="109" style="fill: #ff6f5c; stroke-width: 0px;"/>
      <rect x="218" y="5.08" width="2" height="108" style="fill: #ff6f5c; stroke-width: 0px;"/>
      <rect x="223" y="8.08" width="2" height="105" style="fill: #ff6f5c; stroke-width: 0px;"/>
      <rect x="228" y="12.08" width="2" height="101" style="fill: #ff6f5c; stroke-width: 0px;"/>
      <rect x="233" y="17.08" width="2" height="96" style="fill: #ff6f5c; stroke-width: 0px;"/>
      <rect x="238" y="25.08" width="2" height="88" style="fill: #ff6f5c; stroke-width: 0px;"/>
      <rect x="243" y="32.08" width="2" height="81" style="fill: #ff6f5c; stroke-width: 0px;"/>
      <rect x="248" y="39.08" width="2" height="74" style="fill: #ff6f5c; stroke-width: 0px;"/>
      <rect x="253" y="43.08" width="2" height="70" style="fill: #ff6f5c; stroke-width: 0px;"/>
      <rect x="258" y="46.08" width="2" height="67" style="fill: #ff6f5c; stroke-width: 0px;"/>
      <rect x="263" y="48.08" width="2" height="65" style="fill: #ff6f5c; stroke-width: 0px;"/>
      <rect x="268" y="48.08" width="2" height="65" style="fill: #ff6f5c; stroke-width: 0px;"/>
      <rect x="273" y="48.08" width="2" height="65" style="fill: #ff6f5c; stroke-width: 0px;"/>
      <rect x="278" y="47.08" width="2" height="66" style="fill: #ff6f5c; stroke-width: 0px;"/>
      <rect x="283" y="46.08" width="2" height="67" style="fill: #ff6f5c; stroke-width: 0px;"/>
      <rect x="288" y="45.08" width="2" height="68" style="fill: #ff6f5c; stroke-width: 0px;"/>
      <rect x="293" y="42.08" width="2" height="71" style="fill: #ff6f5c; stroke-width: 0px;"/>
      <rect x="298" y="36.08" width="2" height="77" style="fill: #ff6f5c; stroke-width: 0px;"/>
      <path d="M300,31.99l-2,.11c0,.13.09,3.35-3.09,6.66-3.2,3.33-10.34,7.3-26.16,7.3-13.64,0-19.18-8.88-25.6-19.16-7.88-12.61-16.8-26.91-42.53-26.91s-34.74,15.89-42.44,29.9c-6.1,11.1-11.36,20.68-24.24,20.68-16.2,0-28.1-10.07-38.6-18.95-9.13-7.72-17.75-15.02-27.77-14.49C50.44,18.05,8.54,67.09,0,77.29v6.18l1.51-1.73.06-.08c13.02-16.55,50.29-59.68,66.21-60.52,8.46-.42,16.11,6.04,24.98,13.55,11.02,9.32,23.51,19.89,41.18,19.89,15.24,0,21.31-11.05,27.74-22.75,7.52-13.68,15.29-27.83,38.94-27.83s31.45,12.72,39.13,25.03c6.46,10.34,13.13,21.04,28.99,21.04,13.96,0,23.77-2.92,29.18-8.67.86-.91,1.53-1.83,2.06-2.71v-6.69Z" style="fill: #ff6f5c; stroke-width: 0px;"/>
    </g>
  </g>
</svg>