<?xml version="1.0" encoding="UTF-8"?>
<svg id="Calque_2" data-name="Calque 2" xmlns="http://www.w3.org/2000/svg" viewBox="0 0 56.76 57.06">
  <defs>
    <style>
      .cls-1 {
        fill: #463f76;
      }

      .cls-1, .cls-2, .cls-3, .cls-4, .cls-5, .cls-6, .cls-7, .cls-8, .cls-9, .cls-10 {
        stroke-width: 0px;
      }

      .cls-11 {
        stroke: #e7e9eb;
        stroke-miterlimit: 10;
        stroke-width: 2px;
      }

      .cls-11, .cls-2 {
        fill: none;
      }

      .cls-3 {
        fill: #f15d46;
      }

      .cls-4 {
        fill: #a4c0cf;
      }

      .cls-5 {
        fill: #fdedeb;
      }

      .cls-6 {
        fill: #fddd9a;
      }

      .cls-7 {
        fill: #f16953;
      }

      .cls-8 {
        fill: #f08a86;
      }

      .cls-9 {
        fill: #f39d96;
      }

      .cls-10 {
        fill: #8ca5b5;
      }
    </style>
  </defs>
  <g id="Calque_1-2" data-name="Calque 1">
    <g id="Equerre">
      <g>
        <polygon class="cls-2" points="8 48.21 21.25 34.96 8 21.83 8 48.21"/>
        <polygon class="cls-2" points="8 48.75 35.58 49.16 21.25 34.96 8 48.21 8 48.75"/>
        <polygon class="cls-10" points="27.7 28.51 21.25 34.96 35.58 49.16 8 48.75 8 48.21 0 56.21 56.51 57.06 27.7 28.51"/>
        <polygon class="cls-4" points="8 21.83 21.25 34.96 27.7 28.51 0 1.06 0 56.21 8 48.21 8 21.83"/>
      </g>
      <g id="Mesure">
        <line class="cls-11" x1="8" y1="51.11" x2="8" y2="56.21"/>
        <line class="cls-11" x1="15.17" y1="51.11" x2="15.17" y2="56.21"/>
        <line class="cls-11" x1="22.33" y1="51.11" x2="22.33" y2="56.21"/>
        <line class="cls-11" x1="29.5" y1="51.11" x2="29.5" y2="56.21"/>
        <line class="cls-11" x1="36.66" y1="51.11" x2="36.66" y2="56.21"/>
        <line class="cls-11" x1="43.83" y1="51.11" x2="43.83" y2="56.21"/>
      </g>
    </g>
    <g id="Gomme">
      <rect class="cls-9" x="44.04" y="6.53" width="10.34" height="11.01" transform="translate(7.1 40.2) rotate(-47.52)"/>
      <rect class="cls-7" x="44.77" y="8.18" width="5.86" height="11.01" transform="translate(5.39 39.62) rotate(-47.52)"/>
      <path class="cls-4" d="m39.07,1.71h6.34c1.1,0,2,.9,2,2v5.89h-10.34V3.71c0-1.1.9-2,2-2Z" transform="translate(9.54 32.99) rotate(-47.52)"/>
      <rect class="cls-5" x="48.12" y="7.87" width="3.03" height="7.73" transform="translate(7.46 40.42) rotate(-47.52)"/>
    </g>
    <g id="Crayon">
      <g id="Corps_du_crayon" data-name="Corps du crayon">
        <rect class="cls-1" x="24.35" y="3.12" width="15.27" height="30.42" transform="translate(-3.6 27.99) rotate(-45)"/>
        <g>
          <rect class="cls-3" x="29.07" y="4.29" width="3.51" height="30.42" transform="translate(-4.76 27.51) rotate(-45)"/>
          <rect class="cls-8" x="31.55" y="1.9" width="3.33" height="30.42" transform="translate(-2.37 28.5) rotate(-45)"/>
        </g>
      </g>
      <g id="Gomme-2" data-name="Gomme">
        <g id="Gomme_du_crayon" data-name="Gomme du crayon">
          <rect class="cls-5" x="44.74" y="30.11" width="5.62" height="1.95" transform="translate(35.9 -24.52) rotate(45)"/>
          <path class="cls-4" d="m54.05,29.55l-5.9-5.9-5.38,5.38,7.44,7.19,3.84-3.84c.78-.78.78-2.05,0-2.83Z"/>
          <path class="cls-10" d="m37.34,34.46l5.9,5.9c.78.78,2.05.78,2.83,0l4.15-4.15-7.44-7.19-5.44,5.44Z"/>
        </g>
      </g>
      <g>
        <polygon class="cls-6" points="14.63 1.06 14.99 4.59 15.86 12.91 26.66 2.11 14.63 1.06"/>
        <polygon class="cls-4" points="14.63 1.06 14.78 2.53 15.14 6 19.64 1.5 14.63 1.06"/>
      </g>
    </g>
  </g>
</svg>